/* XPM */
static char *ed5c1b34caec436b8eb4213934a095b0yx1ygzG3d3F2wKOU[] = {
/* columns rows colors chars-per-pixel */
"30 31 19 1 ",
"  c #222222",
". c #62232F",
"X c #72751B",
"o c #605C48",
"O c #64604B",
"+ c #7C7B6E",
"@ c #8F4029",
"# c #C56025",
"$ c #807F72",
"% c #EE8E2E",
"& c #FACB3E",
"* c #828076",
"= c #838279",
"- c #848279",
"; c #878679",
": c #88867D",
"> c #8D8B83",
", c #8E8C83",
"< c #939189",
/* pixels */
"X;;;;;;;;;;;;XXXX$$$$$$$$$$$$X",
",;;;;;;;;;;;;,XX:$$$$$$$$$$$$:",
",;;;;;;;;;;;;,XX:$$$$$$$$$$$$:",
",;;;;;;;;;;;;,XX:$$$$$$$$$$$$:",
",;;;;;;;;;;;;,XX:$$$$$$$$$$$$:",
",;;;;;;;;;;;;,XX:$$$$$$$$$$$$:",
",;;;;;;;;;;;;,XX:$$$$$$$$$$$$:",
",;;;;;;;;  ;;,XX:$$  $$$$$$$$:",
",;;;;;;  &.        .&  $$$$$$:",
",;;;;;; %%@%%%%%%%%@%% $$$$$$:",
",;;;;;; #&.########.&# $$$$$$:",
",;;;;;; #%@########@%# $$$$$$:",
",;;;;;; #&.########.&# $$$$$$:",
"O<<<<<< #%@##@..@##@%# :::::>O",
"XOOOOOO &&.&&.&&.&&.&& ooooooX",
"XXXXXXX  %@  .%&.  @%  XXXXXXX",
"X$$$$$$ .  ..    ..  . ++++++X",
":$$$$$$ @..@@....@@..@ ++++++*",
":$$$$$$ .@@@@@@@@@@@@. ++++++=",
":$$$$$$ .............. ++++++=",
":$$$$$$                ++++++=",
":$$$$$$$$$$$$:XX=++++++++++++=",
":$$$$$$$$$$$$:XX-++++++++++++=",
":$$$$$$$$$$$$:XX-++++++++++++=",
":$$$$$$$$$$$$:XX-++++++++++++=",
":$$$$$$$$$$$$:XX-++++++++++++=",
":$$$$$$$$$$$$:XX-++++++++++++=",
":$$$$$$$$$$$$:XX-++++++++++++=",
":$$$$$$$$$$$$:XX-++++++++++++=",
"O>>>>>>>>>>>>OXXo::::::::::::o",
"XOOOOOOOOOOOOXXXXooooooooooooX"
};
