/* XPM */
static char *a700a39cdee74580ab8348cd974ecadbwDeFzWW5YWrIImGW[] = {
/* columns rows colors chars-per-pixel */
"30 31 91 1 ",
"  c #533617",
". c #56331B",
"X c #59351C",
"o c #553A1D",
"O c #5B3B1D",
"+ c #543727",
"@ c #553924",
"# c #5D3C23",
"$ c #553A2A",
"% c #573F31",
"& c #613E23",
"* c #72751B",
"= c #5B4333",
"- c #5E4538",
"; c #624126",
": c #64442A",
"> c #69472B",
", c #67492D",
"< c #6A4A2E",
"1 c #614733",
"2 c #634935",
"3 c #6C4E31",
"4 c #654E3B",
"5 c #6C4F39",
"6 c #6F5134",
"7 c #67513E",
"8 c #6A513C",
"9 c #715436",
"0 c #735639",
"q c #755A3B",
"w c #795E3E",
"e c #7B603F",
"r c #665242",
"t c #695542",
"y c #6C5945",
"u c #605C48",
"i c #6C5B48",
"p c #715743",
"a c #725E47",
"s c #7A5F40",
"d c #64604B",
"f c #7D6241",
"g c #74624C",
"h c #7A6148",
"j c #776650",
"k c #796753",
"l c #7A6954",
"z c #7E6B57",
"x c #7C6C56",
"c c #776859",
"v c #796C5B",
"b c #7E6E58",
"n c #7F705C",
"m c #7E7465",
"M c #7C7B6E",
"N c #7F7D70",
"B c #7F7E71",
"V c #806544",
"C c #816644",
"Z c #806446",
"A c #816847",
"S c #806649",
"D c #836848",
"F c #856A49",
"G c #866A4A",
"H c #846A4C",
"J c #886D4C",
"K c #89704F",
"L c #806C57",
"P c #8B7152",
"I c #81715E",
"U c #85715F",
"Y c #84745F",
"T c #917857",
"R c #92795A",
"E c #937B5B",
"W c #967F5F",
"Q c #847563",
"! c #8A7D6C",
"~ c #807F72",
"^ c #828076",
"/ c #858376",
"( c #838279",
") c #868578",
"_ c #878679",
"` c #88867D",
"' c #89877E",
"] c #89877F",
"[ c #8D8B83",
"{ c #8E8C83",
"} c #939189",
/* pixels */
"*____________****^~NN^~~~~~~N*",
"{________mp0JG<GGf65NN~^~~~~B'",
"{______chKT</R9EEHww6tNN~~~~B'",
"{_____vGhPP>wq3ewqqGH>8N~~~~B_",
"{____/ZP>GC>ew6wfwqewwwt~~~~~[",
"{____5Gq6GC>wC6eeweef0h0N~~~N'",
"{____few9CC3ee9eeeeewqwh2~~~~'",
"{____hqqqCC3ef9Cfewfwqwf-N~~B'",
"{___)&;;>>Q3ws9Zff67,>;;=~~~N(",
"{___)ggkLJzLww9Zf0nxkggg=~~~^[",
"{___):<355h>ww9Zff772222=BN~B'",
"{__'/3<9>0;9ww0Cf663666,=~BBB'",
"{____9009wq9ww9Zfeeefq00=BBBN[",
"u}}}}9000q06ww9hf0fef66q-[[[[u",
"*dddd9000qq9wq9wfeeff666@uuuu*",
"*****9000qq<qLYY66ef6666 *****",
"*^~~~600090<qy7g:qwq0366=MMMM*",
"'~~~~690q006083y#9fww366%MMMNN",
"'~~~N,<<<<y30O.X90666::,%MMMM(",
"'~~~NglkInx70q<q00Qxkkkg%MMMM(",
"_~NNN8yyggg;003006igyyy8=MMMM(",
"_N^(~O&;;,@:66,66<,;;;&O%MMMM(",
"_/NN^<66,66:60;6660qq>33%MMMM(",
"_~(NN;;;;::o;;.;;;:::##X%MMMM(",
"]~~~~kvnnnmQm!t!QQnnbnvn=MMMM(",
"]~~~~4777tyyyi=giiitt784$NMMM(",
"'~~~~47rrtyyyi=gdiitrt74=MMMM(",
"_~~~N$$$$$$$@= o$$$$$$$@=MMMMN",
"'~~~~~N~^N^N^_**_MMMMMMMMMMMM(",
"d{{{{{[[[[[[[d**u''''['''[([[u",
"*dddddddddddd****uuuuuuuuuuuu*"
};
