/* XPM */
static char *_c4ca20080bd49e2b32a5b0d119b0d94YwTV16Agq9O7dzPI[] = {
/* columns rows colors chars-per-pixel */
"30 31 16 1 ",
"  c #72751B",
". c #605C48",
"X c #64604B",
"o c #66624D",
"O c #6C6852",
"+ c #7C7B6E",
"@ c #807F72",
"# c #848377",
"$ c #848279",
"% c #878679",
"& c #86847B",
"* c #87857C",
"= c #88867D",
"- c #8D8B83",
"; c #8E8C83",
": c #939189",
/* pixels */
" @@@@@@@@@@@@    ++++++++++++ ",
"=@@@@@@@@@@@@=  $++++++++++++$",
"=@@@@@@@@@@@@=  $++++++++++++$",
"=@@@@@@@@@@@@=  $++++++++++++$",
"=@@@@@@@@@@@@=  $++++++++++++$",
"=@@@@@@@@@@@@=  $++++++++++++$",
"=@@@@@@@@@@@@=  $++++++++++++$",
"=@@@@@@@@@@@@=  $++++++++++++$",
"=@@@@@@@@@@@@=  $++++++++++++$",
"=@@@@@@@@@@@@=  $++++++++++++$",
"=@@@@@@@@@@@@=  $++++++++++++$",
"=@@@@@@@@@@@@=  +++++++++++++$",
"=@@@@@@@@@@@@=  @++++++++++++$",
"X------------X  .---**---=-*-.",
" XooooooooooX    ...........o ",
"                              ",
" %%%%%%%%%%%%    ++#+#+#@@@@@ ",
";%%%%%%%%%%%%;  ###+#+#+@@@@+%",
";%%%%%%%%%%%%;  %#+#+#+#@@@@#=",
";%%%%%%%%%%%%;  *+#+#+#+@@@@+=",
";%%%%%%%%%%%%;  ##+#+#+#@@@@@=",
";%%%%%%%%%%%%;  %+#+#+#+@@@@@=",
";%%%%%%%%%%%%;  %#+#+#+#@@@@@*",
";%%%%%%%%%%%%;  %+#+#+#+@@@@@*",
";%%%%%%%%%%%%;  %@@@@@@@@@@@@=",
";%%%%%%%%%%%%;  %#@@@@@@@@@@@*",
";%%%%%%%%%%%%;  %@@@@@@@@@@@@%",
";%%%%%%%%%%%%;  =@@@@@@@@@@@@=",
";%%%%%%%%%%%%;  =@@@@@#@@@@@@=",
"O::::::::::::o  .-;;--;;--;;;.",
" ooOOOOOOOooo    o.o.oo..XXXo "
};
