/* XPM */
static char *_fb368be6ab54d71ae412822b17de980Rl9Lesw7lVSdP5L3[] = {
/* columns rows colors chars-per-pixel */
"30 31 20 1 ",
"  c black",
". c #3A0911",
"X c #72751B",
"o c #605C48",
"O c #64604B",
"+ c #66624D",
"@ c #6C6852",
"# c #7C7B6E",
"$ c #811426",
"% c #A11B31",
"& c #807F72",
"* c #848279",
"= c #878679",
"- c #86847A",
"; c #87857C",
": c #88867D",
"> c #8D8B83",
", c #8E8C83",
"< c #939189",
"1 c white",
/* pixels */
"X&&&&&&&&&&&&XXXX############X",
":&&&&&&&&&.......############*",
":&&&&&&&&.$%%%%%%.###########*",
":&&&&&&&.$%%%....%.##########*",
":&&&&&&.$%%%.    .%.#########*",
":&&&&&&.$%%.      .%.########*",
":&&&&&.$$%%.      .%.########*",
":&&&&&.$$$%. 1   1.%.########*",
":&&&&&.$.$%. 1   1.%.########*",
":&&&&&.$.$%.      .$.########*",
":&&&&&&..$$%.     .$.########*",
":&&&&&&&&.$$$.   .$.#########*",
":&&&&&&&&&..$$...$.##########*",
"O>>>>>>>>.$$$%%%%%$.;>;>;>>;>+",
"XO++++++.$%%%%%%%%%$.ooooooooX",
"XXXXXXXX.$%%%%%%%%%$.XXXXXXXXX",
"X=======.%%%%%%%%%%%.&&&&&&&&X",
",======.$%%%%%%%%%%%.&&&&&&&#=",
",======.$%%%%%%$%%%%$.&&&&&&&=",
",======.$%%%%%%$%%%%$.&&&&&&&>",
",======.$%%%%%$.$%%$$.&&&&&&*;",
",=====.$$$%$%$$.$$%$$.&&&&&&#;",
",=====.$$$$%$$. .$$$$.&&&&&&*=",
",=====.$.$$$$.  .$$.$.&&&&&&&=",
",======..$.$$.   .$$.&&&&&&&&;",
",=======..=...XX ...&&&&&&&&&;",
",==========  ,XX: &&&&&&&&&&&;",
",=========== ,XX: &&&&&&&&&&&;",
",=========== ,XX: &&&&&&&&&&&;",
"@<<<<<<<<<<<<+XXO>>>>>>>>>>>>O",
"X++@@@@@@@+++XXXXOOOOOOOOOOOOX"
};
