/* XPM */
static char *_ad8d7d2565949b4b7f42eecd3eb1693EQkTEIbnYJjL2t3m[] = {
/* columns rows colors chars-per-pixel */
"30 31 106 2 ",
"   c #4A2611",
".  c #4E2913",
"X  c #4F2F1A",
"o  c #502A13",
"O  c #4F301B",
"+  c #55331C",
"@  c #59351D",
"#  c #4F3B2C",
"$  c #573723",
"%  c #593720",
"&  c #5B3B25",
"*  c #543D2C",
"=  c #5C3E2A",
"-  c #72751B",
";  c #5E412C",
":  c #574031",
">  c #5B4535",
",  c #5E4A3B",
"<  c #61432E",
"1  c #634632",
"2  c #644833",
"3  c #654B38",
"4  c #5D564D",
"5  c #5F584E",
"6  c #645646",
"7  c #6C5442",
"8  c #655847",
"9  c #6F5847",
"0  c #61574C",
"q  c #645A4E",
"w  c #695B4C",
"e  c #635C52",
"r  c #685F52",
"t  c #65614C",
"y  c #666056",
"u  c #696155",
"i  c #6C6852",
"p  c #676358",
"a  c #6B645B",
"s  c #6F685F",
"d  c #756D5B",
"f  c #77705B",
"g  c #79715E",
"h  c #6F6A60",
"j  c #716B61",
"k  c #736C62",
"l  c #726C63",
"z  c #726E63",
"x  c #746D63",
"c  c #756E63",
"v  c #746D64",
"b  c #756E64",
"n  c #766F65",
"m  c #756F68",
"M  c #767066",
"N  c #7C7462",
"B  c #7D7A6E",
"V  c #7C7B6E",
"C  c #7E7A70",
"Z  c #7F7D70",
"A  c #817E72",
"S  c #807F72",
"D  c #817F74",
"F  c #827E74",
"G  c #828074",
"H  c #858275",
"J  c #848279",
"K  c #878578",
"L  c #888579",
"P  c #898679",
"I  c #88857A",
"U  c #88867A",
"Y  c #89867A",
"T  c #89877A",
"R  c #8A877A",
"E  c #8A877B",
"W  c #88867D",
"Q  c #8B887B",
"!  c #8C8A7E",
"~  c #8D8B82",
"^  c #8E8C81",
"/  c #8F8C81",
"(  c #8F8D84",
")  c #908E84",
"_  c #908E85",
"`  c #918E85",
"'  c #928F85",
"]  c #928F86",
"[  c #929085",
"{  c #929086",
"}  c #939186",
"|  c #949187",
" . c #949289",
".. c #969388",
"X. c #97948B",
"o. c #97948C",
"O. c #97958C",
"+. c #98958D",
"@. c #9A978C",
"#. c #9A978D",
"$. c #99968E",
"%. c #99978E",
"&. c #9A988F",
"*. c #9C9991",
"=. c #9E9C94",
"-. c #A09D95",
/* pixels */
"- S S S G S S S S S = = ; < ; ; % ; & o B V V V V V V V V - ",
"W S S S Z D S S 2 2 &.O.%.O.] ] ( ] G G o . V V V V V V V J ",
"W S S S G Z 9 7 ( O.O.O.%.O.] ( ( ( G H G G . . V V V V V J ",
"W S S S Z 3 W { } O.*.O.O.O.( ] ] ] G G G J k M . V V V V J ",
"W S S S 1 I K { ] %.O.%.%.O.] ] ( ( G G D D b k M . V V V G ",
"W S S S 2 I K } ] %.%.O.O.O.] ] ] ] H G F D b k M . V V V J ",
"W S S S 2 I I } ] %.%.%.%.X.( ] ] ( D H F H k h h . V V V J ",
"W S S S 2 I I } ] %.%.=.=.=.X.X.X.X.( J F S l h M . V V V J ",
"Q F F F 1 R I ] ] =.-.M M b b b l l k ~ ( D h h d . V V B J ",
"Q = & & 1 R Q %.%.c M b M b b b l k h k l D C l k . . . . J ",
"< ] Q R 1 ) ) b c b b @ @ % % % @ $ $ s h a h D h . 6 6 8 . ",
"< ] F R @ c b b b @ @ r r w w w w 9 q = $ h a a C . 6 6 6 . ",
"< ..R R + d c b < e e a u a p p e u a e q $ a h a . 8 6 6 . ",
"2 | R R + c k & 9 r r a 3 , 3 , , 3 e a e q $ a a . 8 8 q . ",
"2 %.Q Q + s c & q e r e > m m m m * e e e e % a p . e q r . ",
"2 #.Q I @ k k & q q e r r = * * * e e e e e % e p . t q t . ",
"2 %.R R @ d k @ q q 0 e e e e e 0 e 5 0 e e X e y   e t u   ",
"2 #.R P & d s @ 0 q 0 q 0 e 0 e e 0 4 e e 5 $ e e . e t w   ",
"2 @.I P & a p @ e 0 e * * e * * * 0 * e 5 e X 5 e . t e u   ",
"2 @.R P & a e % 0 0 0 p e e p p e 4 e e e 5 O 5 4 O w t ! . ",
"< X.I K % p r % @ & % & = ; ; ; = = ; = O X X 4 4 O t V (   ",
"1 %.I I J < 1 N N g f f d g d d d d d d d d d * : V V V W   ",
"1 | I I I H H H H F S S S S Z Z V V Z B V V C C V V V V (   ",
"1 X.H R H R F D H F S S S S Z B Z V B B B V V V V V V V _   ",
"< &.*.*.=.*. . .| | ) ! ( ( ! ! ! ~ ! ! I ! ! Q ! } { } _   ",
"o d k r e p e e e e e q e 5 4 4 5 e y y y y 4 4 4 4 e e p   ",
". k e e e e e e e e e 5 5 5 5 5 4 4 4 y y y 4 4 4 4 4 4 y   ",
". h e e e e e e e e 5 e 5 5 5 5 5 5 4 y e 4 4 4 4 4 4 4 e   ",
". . . . . . . .     .                                       ",
"i o. .{  . . . .] X. . .X.t - - t ( ~ ~ ~ ~ ~ ! ~ ~ ~ ( ~ t ",
"- t t i i i i i i i t t t - - - - t t t 5 t t t t t t 4 t - "
};
